# xmcd
#
# Track frame offsets:
#	150
#	7280
#	14843
#	28637
#	39963
#	58422
#	73185
#	89357
#	106149
#	115638
#	127550
#	147554
#	168368
#	183222
#
# Disc length: 2573 seconds
# Revision: 0
# Processed by: cddbd v1.5.2PL0 Copyright (c) Steve Scherf et al.
# Submitted via: dBpowerAMP V12.0
#
DISCID=bd0a0b0e
DTITLE=Sortin' The Mail - You'll Go Blind
DYEAR=2013
DGENRE=Bluegrass
TTITLE0=Sortin' The Mail
TTITLE1=As Long As I'm Yer Man
TTITLE2=I Will Bend
TTITLE3=Life On The Outside
TTITLE4=Jailbreak Baitdown
TTITLE5=Glad Yer Gone
TTITLE6=Gold Watch And Chain
TTITLE7=I'll Be Gone
TTITLE8=Kiss Yer Cousin
TTITLE9=Moto Para Mi
TTITLE10=Octopus's Garden
TTITLE11=Misery Loves Company
TTITLE12=Eruption On The Banjo
TTITLE13=Sortin' The Mail (Reprise)
EXTD=
EXTT0=
EXTT1=
EXTT2=
EXTT3=
EXTT4=
EXTT5=
EXTT6=
EXTT7=
EXTT8=
EXTT9=
EXTT10=
EXTT11=
EXTT12=
EXTT13=
PLAYORDER=
